<?xml version="1.0" encoding="UTF-8" standalone="no"?>
<!DOCTYPE svg PUBLIC "-//W3C//DTD SVG 1.1//EN" "http://www.w3.org/Graphics/SVG/1.1/DTD/svg11.dtd">
<svg width="100" height="100" viewBox="0 0 655 200" version="1.1" xmlns="http://www.w3.org/2000/svg" xmlns:xlink="http://www.w3.org/1999/xlink" xml:space="preserve" style="fill-rule:evenodd;clip-rule:evenodd;stroke-miterlimit:1.41421;">
    <g transform="matrix(4.16667,0,0,4.16667,0,0)">
        <path d="M60.978,47.243C58.855,47.243 57.419,46.965 56.669,46.412C55.919,45.858 55.453,45.01 55.267,43.868C55.084,42.726 54.991,40.309 54.991,36.618L54.991,11.878C54.991,7.979 55.112,5.51 55.355,4.472C55.597,3.434 56.076,2.724 56.791,2.344C57.505,1.963 59.017,1.773 61.324,1.773L63.037,1.784L63.03,0.994L48.255,1.003L46.502,5.078L40.761,18.411L36.206,28.994L32.299,38.068C31.948,38.87 31.145,39.078 30.701,38.073L30.639,37.935L21.998,18.411L14.323,1.073L0,1.073L0,1.911L1.281,1.911C3.657,1.911 5.197,2.118 5.9,2.534C6.604,2.949 7.066,3.699 7.285,4.783C7.503,5.869 7.614,8.28 7.614,12.017L7.614,34.006C7.614,37.883 7.475,40.537 7.199,41.967C6.921,43.398 6.154,44.602 4.897,45.581C3.64,46.56 2.007,47.107 0,47.221L0,47.973L16.785,47.973L16.785,47.221C14.616,47.083 12.931,46.502 11.732,45.476C10.533,44.452 9.817,43.259 9.586,41.898C9.355,40.537 9.24,37.975 9.24,34.214L9.24,7.944C9.244,7.461 9.76,7.182 10.057,7.755L18.886,27.616L24.871,41.078L27.949,48L29.603,48L32.6,41.078L37.832,28.994L41.22,21.168C41.22,21.168 44.977,12.48 46.615,8.698C47.054,7.683 47.342,7.018 47.363,6.973C47.655,6.328 48.209,6.619 48.209,7.119L48.209,36.618C48.209,40.54 48.098,43.038 47.878,44.11C47.66,45.183 47.164,45.973 46.391,46.481C45.619,46.989 44.24,47.243 42.255,47.243L40.594,47.243L40.594,47.995L63.054,47.995L63.054,47.243L60.978,47.243Z" style="fill:rgb(255,255,255);fill-rule:nonzero;"/>
        <path d="M94.302,24.411C94.302,28.139 91.28,31.161 87.552,31.161C83.825,31.161 80.802,28.139 80.802,24.411C80.802,20.683 83.825,17.661 87.552,17.661C91.28,17.661 94.302,20.683 94.302,24.411Z" style="fill:none;stroke:rgb(255,255,255);stroke-width:1px;"/>
        <path d="M153.188,45.992C152.374,45.357 151.727,44.486 151.246,43.377L149.096,38.463L133.075,0.415L131.741,0.415L118.104,32.987C117.127,35.324 116.567,36.666 116.428,37.01C114.997,40.672 113.55,43.827 112.534,44.966C111.52,46.106 109.974,46.838 107.897,47.161L107.897,47.954L121.844,47.954L121.844,47.161C120.345,47.161 119.115,46.796 118.158,46.07C117.201,45.343 116.722,44.276 116.722,42.869C116.722,41.554 117.847,37.987 119.646,33.673L120.691,31.147C120.691,31.147 120.875,30.696 121.406,30.696L135.091,30.696L134.428,29.139L130.384,29.139L124.012,29.139L123.021,29.139C122.196,29.139 121.779,28.516 122.096,27.754L122.169,27.577L122.168,27.577L125.555,19.398L129.229,10.522C129.388,10.141 129.595,10.004 129.804,10.004C130.011,10.004 130.218,10.141 130.377,10.522L130.658,11.201L136.521,25.379L137.504,27.753L137.504,27.754L138.077,29.139L138.721,30.696L142.625,40.161C143.687,42.675 144.217,44.186 144.217,44.694C144.217,45.686 143.819,46.349 143.023,46.684C142.228,47.018 140.699,47.186 138.438,47.186L138.438,47.979L156.849,47.979L156.849,47.186C155.222,47.024 154.001,46.626 153.188,45.992Z" style="fill:rgb(255,255,255);fill-rule:nonzero;"/>
    </g>
</svg>
