<?xml version="1.0" standalone="no"?>
<!DOCTYPE svg PUBLIC "-//W3C//DTD SVG 20010904//EN"
 "http://www.w3.org/TR/2001/REC-SVG-20010904/DTD/svg10.dtd">
<svg version="1.0" xmlns="http://www.w3.org/2000/svg"
 width="1908.000000pt" height="844.000000pt" viewBox="0 0 1908.000000 844.000000"
 preserveAspectRatio="xMidYMid meet">
<metadata>
Created by potrace 1.15, written by Peter Selinger 2001-2017
</metadata>
<g transform="translate(0.000000,844.000000) scale(0.100000,-0.100000)"
fill="#000000" stroke="none">
<path d="M3638 8420 c-100 -78 -128 -541 -93 -1510 8 -223 19 -479 25 -570 13
-231 13 -941 -1 -977 -5 -15 -16 -31 -22 -35 -7 -4 -113 -8 -237 -8 -298 0
-864 -17 -1020 -30 -251 -21 -574 -74 -865 -142 -217 -50 -502 -173 -690 -295
-387 -253 -631 -614 -716 -1055 -28 -148 -23 -367 11 -498 48 -183 136 -343
258 -472 248 -260 709 -442 1317 -518 299 -37 390 -42 911 -47 797 -8 1262 20
1714 103 665 122 1045 342 1109 642 26 122 6 419 -45 687 -44 228 -201 831
-289 1110 -47 149 -122 392 -166 540 -118 397 -235 772 -275 883 -20 53 -130
380 -245 726 -295 886 -403 1171 -508 1344 -46 77 -66 101 -101 125 -31 22
-42 21 -72 -3z m-763 -4090 c210 -20 404 -72 511 -136 85 -51 130 -99 172
-183 l37 -75 0 -145 c0 -128 -3 -155 -24 -216 -20 -57 -35 -80 -79 -123 -73
-70 -189 -127 -317 -155 -93 -20 -125 -22 -465 -21 -389 0 -465 6 -591 49 -95
33 -172 81 -247 156 -122 122 -159 257 -112 410 48 159 119 251 235 305 238
110 581 162 880 134z"/>
<path d="M10876 6405 c-55 -19 -112 -79 -148 -155 -70 -144 -39 -370 64 -466
53 -51 115 -77 193 -82 62 -3 76 -1 125 25 44 23 61 39 83 80 61 113 85 306
51 405 -29 88 -112 162 -214 192 -65 19 -102 20 -154 1z"/>
<path d="M10382 5453 c-51 -25 -189 -177 -282 -311 -190 -274 -404 -666 -561
-1032 -181 -423 -331 -720 -363 -720 -16 0 -65 52 -103 110 -53 79 -443 888
-628 1301 -120 268 -171 366 -201 386 -14 9 -49 18 -77 21 -45 3 -74 -4 -215
-58 -299 -113 -511 -212 -719 -334 l-92 -55 -72 132 c-188 344 -316 473 -504
508 -72 14 -217 6 -299 -16 -146 -39 -319 -128 -477 -247 -177 -133 -229 -204
-229 -313 0 -74 26 -125 88 -172 54 -41 110 -56 189 -51 51 3 70 10 105 36 99
74 257 177 313 203 77 37 149 39 220 5 80 -37 129 -107 176 -254 20 -63 21
-74 9 -87 -8 -8 -80 -55 -160 -106 -275 -173 -527 -366 -660 -505 -181 -188
-292 -410 -356 -709 -25 -118 -23 -335 5 -440 79 -301 269 -425 671 -442 215
-8 319 10 610 107 251 83 372 134 486 205 40 25 81 45 93 45 16 0 29 -17 57
-72 44 -89 117 -203 152 -241 73 -78 272 -74 360 7 55 49 67 91 67 226 0 143
-23 237 -96 403 -22 51 -94 219 -159 373 -65 155 -175 411 -244 570 l-126 289
18 25 c40 53 320 203 489 261 80 27 95 30 110 18 24 -20 88 -162 187 -414 124
-313 134 -336 283 -675 162 -367 383 -819 448 -915 119 -174 192 -230 305
-230 164 1 234 63 345 310 39 88 89 205 109 260 160 426 451 1106 611 1426
182 364 384 855 392 954 10 123 -25 184 -124 215 -78 24 -107 25 -151 3z
m-3500 -1490 c20 -24 171 -360 220 -492 62 -162 53 -233 -39 -332 -85 -91
-185 -147 -405 -228 -169 -62 -231 -74 -360 -69 -86 3 -111 8 -153 30 -27 14
-60 37 -72 50 -143 153 17 511 355 791 175 145 363 267 413 267 14 0 33 -8 41
-17z"/>
<path d="M12115 5376 c-81 -25 -152 -82 -188 -150 -21 -39 -22 -56 -25 -311
-2 -148 1 -443 7 -655 12 -418 8 -484 -34 -555 -46 -79 -468 -465 -508 -465
-20 0 -67 641 -107 1455 -12 244 -25 381 -41 422 -17 46 -58 92 -102 115 -84
45 -254 20 -316 -45 -72 -78 -107 -328 -91 -661 21 -426 121 -1777 144 -1941
31 -219 110 -323 228 -301 47 9 182 113 339 263 195 185 450 416 481 437 54
35 55 31 61 -266 3 -161 10 -289 17 -313 28 -93 119 -134 269 -120 156 15 246
60 276 139 16 41 16 65 6 278 -32 661 -49 1464 -32 1565 16 92 58 179 107 222
72 63 215 115 409 146 182 30 286 14 355 -55 69 -69 73 -93 124 -660 25 -283
53 -609 61 -725 27 -373 77 -714 114 -765 29 -41 78 -60 153 -60 91 0 134 18
388 161 301 169 286 162 314 147 14 -7 47 -43 75 -79 58 -77 106 -119 212
-183 116 -70 197 -104 279 -118 114 -19 462 -16 585 5 415 72 719 228 967 497
45 50 86 90 89 90 4 0 23 -34 43 -77 101 -213 236 -331 503 -438 179 -73 263
-86 593 -92 498 -9 724 35 917 181 122 92 210 236 260 422 22 85 26 121 27
254 1 151 0 158 -32 250 -81 232 -187 339 -547 552 -136 80 -487 267 -604 320
-139 64 -211 138 -211 216 0 51 57 123 124 157 59 29 62 30 205 29 170 -1 287
-23 433 -79 303 -118 354 -129 451 -101 74 21 108 52 143 128 23 51 29 77 29
138 0 91 -18 132 -87 200 -92 90 -388 218 -601 259 -309 60 -667 46 -852 -33
-133 -57 -339 -234 -397 -341 -72 -135 -111 -343 -90 -487 33 -227 197 -407
527 -577 55 -28 201 -100 325 -161 312 -151 472 -258 517 -345 10 -19 16 -56
17 -100 1 -152 -88 -250 -260 -284 -27 -6 -108 -15 -180 -21 -115 -9 -143 -8
-246 9 -133 23 -295 73 -349 107 -135 85 -209 231 -300 590 -17 66 -63 137
-109 169 -35 24 -53 30 -99 29 -109 0 -189 -60 -444 -336 -229 -249 -550 -462
-779 -519 -80 -20 -119 -23 -278 -24 -174 0 -188 1 -233 24 -113 55 -174 203
-196 479 -11 134 -3 184 32 206 12 7 76 30 142 49 373 110 523 152 735 207
417 109 613 171 767 245 103 50 133 80 133 135 0 144 -127 456 -259 634 -162
218 -368 332 -680 377 -132 19 -408 6 -558 -25 -225 -48 -376 -113 -515 -225
-248 -198 -365 -431 -435 -866 -14 -90 -17 -178 -18 -485 -1 -424 3 -405 -80
-445 -68 -33 -104 -41 -110 -24 -6 17 -85 857 -120 1279 -14 168 -30 334 -36
370 -22 147 -122 282 -254 345 -144 69 -321 100 -529 92 -211 -8 -378 -50
-555 -139 -101 -51 -135 -58 -149 -30 -6 9 -17 64 -26 122 -18 117 -35 149
-87 167 -45 16 -183 15 -234 -1z m3748 -651 c77 -20 124 -45 171 -92 41 -40
101 -156 92 -178 -8 -21 -101 -51 -501 -161 -209 -58 -429 -121 -490 -140
-131 -42 -203 -53 -216 -33 -31 49 9 207 77 306 94 137 313 256 548 298 99 18
250 18 319 0z"/>
<path d="M14855 1575 c-4 -30 -2 -130 5 -222 7 -102 11 -348 9 -627 -2 -437
-1 -459 16 -472 22 -16 170 -19 180 -4 3 6 35 10 71 10 105 0 166 35 209 120
34 67 42 123 56 372 9 180 9 239 0 289 -21 103 -69 182 -133 215 -31 16 -117
18 -166 5 l-32 -10 0 167 c0 215 2 212 -120 212 l-89 0 -6 -55z m307 -512 c36
-42 43 -93 43 -320 0 -221 0 -221 -24 -247 -44 -47 -106 -29 -120 35 -4 19 -6
138 -3 264 4 245 9 269 54 278 13 2 26 5 29 6 3 0 13 -7 21 -16z"/>
<path d="M294 1589 c-17 -19 -20 -47 -28 -268 -13 -324 -13 -453 -2 -775 11
-317 7 -306 110 -306 48 0 69 5 89 20 17 14 40 20 74 20 103 0 172 41 214 126
26 54 56 247 65 419 11 196 -20 313 -102 385 -53 46 -97 62 -177 63 l-68 1 3
141 c3 121 1 144 -15 168 -16 25 -23 27 -81 27 -51 0 -66 -4 -82 -21z m286
-519 c28 -15 40 -72 40 -195 0 -228 -28 -369 -75 -381 -28 -7 -61 9 -76 38 -7
13 -13 109 -17 259 l-5 237 26 26 c28 28 73 34 107 16z"/>
<path d="M16317 1588 c-37 -37 -41 -123 -34 -752 7 -609 5 -596 70 -596 59 0
107 19 118 46 5 15 11 268 13 602 2 318 7 600 11 627 10 72 -5 88 -88 93 -59
4 -68 2 -90 -20z"/>
<path d="M12516 1529 c-22 -17 -26 -28 -26 -71 0 -60 22 -102 66 -123 44 -21
65 -19 105 8 45 30 60 83 36 132 -33 69 -126 97 -181 54z"/>
<path d="M15773 1526 c-53 -46 -28 -157 43 -191 31 -15 43 -15 76 -6 43 13 78
58 78 101 0 91 -129 154 -197 96z"/>
<path d="M16874 1526 c-43 -19 -64 -53 -64 -103 0 -61 25 -83 94 -83 64 0 99
23 116 76 16 48 -2 92 -46 110 -41 17 -60 17 -100 0z"/>
<path d="M4021 1454 c-18 -23 -21 -41 -21 -115 l0 -89 -29 0 c-45 0 -61 -23
-61 -88 0 -77 17 -107 57 -107 18 0 37 -5 44 -12 8 -8 14 -103 19 -310 8 -293
12 -330 43 -389 44 -85 177 -129 270 -90 38 16 87 70 87 96 0 21 -84 98 -118
106 -12 4 -29 1 -38 -6 -10 -9 -18 -10 -25 -3 -17 17 -29 174 -29 394 l0 217
69 4 c93 5 104 15 99 96 -3 41 -9 67 -19 73 -7 5 -42 9 -75 9 -71 0 -74 3 -74
88 0 134 -14 152 -120 152 -51 0 -61 -3 -79 -26z"/>
<path d="M10930 1460 c-17 -17 -20 -33 -20 -114 l0 -95 -37 -3 c-50 -4 -66
-34 -58 -107 8 -78 19 -93 63 -89 34 3 36 1 44 -32 4 -19 11 -164 16 -321 l8
-285 29 -59 c25 -50 38 -63 80 -84 95 -46 207 -35 255 26 34 43 26 75 -27 117
-54 42 -87 53 -107 36 -12 -9 -17 -7 -28 12 -10 17 -14 96 -16 309 l-4 287 72
4 c92 5 104 18 96 102 -3 33 -12 63 -19 68 -6 4 -42 8 -79 8 l-66 0 -7 109 -8
110 -30 10 c-52 19 -134 14 -157 -9z"/>
<path d="M17505 1472 c-63 -21 -68 -40 -51 -169 l8 -63 -32 0 c-17 0 -44 -7
-59 -15 l-29 -14 15 -68 c16 -78 30 -96 73 -95 l31 1 -7 -197 c-5 -175 -4
-208 14 -292 36 -172 86 -266 163 -306 67 -34 198 -2 248 62 30 38 26 57 -20
98 -59 54 -83 63 -114 42 -14 -9 -30 -14 -35 -11 -28 17 -50 215 -50 445 l0
170 69 0 c87 0 95 8 89 94 -5 88 -22 106 -100 106 l-58 0 0 94 c0 115 -8 126
-83 125 -29 -1 -61 -4 -72 -7z"/>
<path d="M18251 1322 c-16 -5 -28 -18 -32 -36 -5 -16 -4 -196 0 -400 8 -348 9
-374 30 -429 49 -126 147 -205 267 -215 52 -4 62 -7 53 -18 -20 -25 -49 -26
-95 -3 -47 24 -70 21 -84 -12 -4 -8 -14 -29 -23 -47 -26 -52 -22 -97 11 -120
41 -29 89 -42 151 -42 132 1 218 69 267 210 18 51 19 89 19 569 0 413 -3 517
-13 528 -14 13 -136 19 -166 7 -32 -12 -38 -80 -35 -409 4 -292 2 -323 -14
-353 -20 -37 -51 -52 -90 -45 -22 4 -27 12 -36 57 -21 105 -34 287 -36 504 -1
185 -4 226 -17 238 -17 18 -119 28 -157 16z"/>
<path d="M2235 1293 c-77 -40 -145 -140 -145 -214 0 -41 12 -48 90 -50 l45 -1
-44 -15 c-52 -18 -130 -92 -159 -149 -43 -86 -51 -183 -27 -333 25 -152 72
-231 160 -272 47 -22 132 -25 178 -5 27 11 34 11 45 0 8 -9 37 -14 82 -14 108
0 108 1 103 201 -13 484 -22 645 -38 699 -35 116 -101 170 -206 170 -30 -1
-67 -8 -84 -17z m78 -483 c14 -11 31 -36 37 -56 16 -49 17 -160 1 -217 -14
-48 -58 -97 -88 -97 -29 0 -70 54 -82 108 -27 128 -4 243 53 268 42 18 49 17
79 -6z"/>
<path d="M14195 1291 c-88 -40 -150 -119 -162 -206 -8 -60 8 -75 83 -75 71 0
103 14 115 50 22 62 79 21 79 -57 0 -48 -3 -49 -53 -28 -50 21 -134 19 -177
-4 -85 -44 -142 -174 -143 -321 0 -176 68 -327 174 -381 43 -21 133 -26 172
-8 20 9 30 8 51 -6 27 -18 23 -19 138 12 10 2 22 20 27 41 5 20 11 201 13 402
3 323 1 371 -14 421 -21 66 -67 132 -111 159 -42 26 -137 27 -192 1z m91 -523
c38 -73 26 -221 -23 -279 -58 -68 -104 -19 -111 118 -4 69 -1 89 17 126 34 70
90 87 117 35z"/>
<path d="M3383 1288 c-38 -18 -43 -58 -43 -337 0 -146 -5 -295 -11 -331 -21
-133 -69 -192 -125 -156 -60 40 -84 166 -84 449 0 118 5 189 16 238 14 63 14
72 0 94 -18 28 -80 41 -154 32 -77 -8 -78 -11 -86 -279 -7 -245 2 -391 30
-488 33 -115 95 -205 166 -241 48 -24 148 -34 208 -20 28 6 49 6 54 0 6 -5 50
-9 98 -9 138 0 127 -49 121 511 -2 261 -6 484 -9 496 -2 13 -18 29 -34 38 -33
17 -114 19 -147 3z"/>
<path d="M5143 1290 c-40 -16 -45 -42 -28 -141 34 -200 29 -524 -11 -600 -17
-35 -61 -40 -88 -10 -38 41 -47 107 -56 414 -6 172 -14 306 -20 317 -9 17 -21
20 -71 20 -49 0 -64 -4 -83 -23 -23 -23 -24 -29 -31 -282 -8 -273 -3 -373 21
-470 46 -177 170 -280 315 -261 50 7 50 7 38 -16 -7 -13 -17 -26 -23 -30 -20
-14 -60 -8 -94 12 -42 26 -74 25 -100 -3 -28 -30 -62 -105 -62 -140 0 -24 7
-31 48 -50 37 -17 66 -21 142 -22 112 0 155 17 214 87 79 92 91 208 78 744 -7
264 -14 410 -22 432 -12 32 -12 32 -78 31 -37 0 -77 -4 -89 -9z"/>
<path d="M11795 1276 c-75 -33 -145 -142 -145 -228 0 -43 3 -48 26 -54 36 -9
145 5 171 21 12 8 23 27 25 42 4 33 32 43 46 16 5 -10 13 -33 17 -50 l7 -33
-67 0 c-78 0 -118 -15 -174 -66 -89 -80 -127 -194 -118 -354 7 -108 18 -147
59 -208 62 -90 152 -132 247 -113 37 8 58 8 67 1 7 -6 46 -10 91 -8 l78 3 8
115 c4 63 8 248 10 410 2 329 -2 358 -65 434 -61 74 -198 109 -283 72z m115
-521 c20 -21 25 -39 28 -95 6 -109 -31 -190 -89 -190 -43 0 -69 47 -69 125 1
74 16 144 37 167 23 26 65 22 93 -7z"/>
<path d="M12518 1278 c-30 -8 -37 -15 -40 -41 -7 -53 -3 -975 4 -982 4 -4 45
-10 91 -12 113 -7 111 -12 103 211 -5 118 -2 237 8 386 22 305 21 390 -5 424
-18 22 -28 26 -72 25 -29 -1 -68 -5 -89 -11z"/>
<path d="M15778 1278 c-30 -8 -37 -15 -40 -41 -7 -54 -3 -975 4 -982 4 -4 45
-10 91 -12 113 -7 111 -13 102 216 -4 122 -2 241 9 391 22 303 21 380 -5 414
-18 22 -28 26 -72 25 -29 -1 -68 -5 -89 -11z"/>
<path d="M9341 1263 l-24 -16 7 -354 c6 -322 5 -357 -10 -389 -20 -41 -70 -68
-109 -58 -34 9 -70 53 -92 116 -16 47 -18 88 -18 382 l0 329 -78 -6 c-110 -9
-113 -11 -120 -103 -11 -129 -8 -578 4 -636 24 -113 101 -219 186 -254 47 -20
150 -29 195 -16 25 7 39 7 47 -1 14 -14 179 -23 192 -10 17 17 27 186 34 590
l8 382 -31 31 c-28 28 -36 30 -99 30 -48 0 -76 -5 -92 -17z"/>
<path d="M16855 1268 c-11 -6 -23 -16 -27 -22 -11 -15 -10 -968 1 -984 6 -9
34 -14 90 -15 115 -3 112 -9 104 218 -4 111 -1 248 6 351 7 93 13 229 14 302
2 122 0 135 -17 148 -24 17 -142 19 -171 2z"/>
<path d="M8160 1261 c-82 -27 -158 -100 -184 -178 -34 -99 -12 -218 55 -303
22 -28 82 -82 132 -119 118 -87 167 -141 167 -181 0 -24 -6 -33 -26 -40 -29
-11 -51 -2 -102 41 -18 16 -38 29 -43 29 -20 0 -135 -59 -152 -78 -16 -18 -15
-21 15 -67 59 -89 160 -131 293 -123 197 13 302 193 216 374 -36 77 -77 123
-160 182 -102 72 -160 122 -176 153 -21 39 -19 85 5 109 30 30 72 25 120 -15
26 -21 53 -35 69 -35 58 0 148 90 135 134 -9 34 -63 74 -128 96 -66 23 -196
35 -236 21z"/>
<path d="M10049 1237 c-109 -56 -167 -155 -156 -264 11 -110 70 -190 213 -294
108 -78 146 -121 142 -162 -2 -22 -11 -36 -31 -47 -26 -14 -31 -13 -87 18 -68
37 -102 40 -150 11 -69 -41 -84 -81 -54 -144 19 -40 70 -75 143 -100 42 -13
74 -16 140 -13 99 6 157 28 210 79 41 40 57 77 65 154 14 125 -29 193 -214
340 -153 122 -175 165 -104 211 23 16 27 15 75 -10 64 -33 72 -32 135 3 58 34
84 67 84 110 0 37 -20 58 -85 87 -136 62 -235 69 -326 21z"/>
<path d="M1366 1245 c-81 -29 -147 -125 -188 -275 -20 -76 -23 -108 -23 -290
0 -193 1 -208 24 -264 30 -74 99 -147 157 -164 23 -6 70 -12 105 -12 111 0
196 55 240 155 20 46 34 143 25 172 -9 28 -48 43 -112 43 -69 0 -94 -13 -94
-48 0 -58 -19 -99 -51 -113 -22 -8 -37 -9 -48 -3 -29 18 -52 82 -58 159 l-6
75 186 0 c174 0 187 1 197 19 13 26 13 231 -1 307 -15 83 -63 169 -115 204
-69 48 -163 62 -238 35z m138 -214 c23 -26 45 -87 46 -128 l0 -33 -95 0 c-107
0 -107 0 -85 82 24 83 93 124 134 79z"/>
<path d="M13051 1241 c-26 -26 -35 -263 -26 -677 l8 -323 54 -7 c37 -4 66 -2
91 8 62 23 66 48 52 361 -12 290 -9 341 24 390 18 27 28 32 61 32 79 0 95 -77
95 -466 0 -328 -5 -315 111 -313 39 1 72 3 74 6 14 13 27 274 22 428 -10 286
-44 428 -122 505 -51 52 -93 61 -189 44 -44 -7 -71 -8 -75 -2 -24 37 -147 47
-180 14z"/>
<path d="M6551 1209 c-24 -26 -36 -93 -27 -153 l7 -44 -80 -3 c-117 -6 -127
-20 -123 -164 l2 -60 104 3 104 4 4 -102 c5 -125 12 -134 101 -127 88 8 97 20
97 132 l0 93 79 3 c67 4 83 8 105 28 23 22 26 32 26 90 0 117 4 113 -115 109
l-103 -3 -4 82 c-6 108 -25 133 -104 133 -42 0 -58 -5 -73 -21z"/>
</g>
</svg>
