<?xml version="1.0" encoding="UTF-8" standalone="no"?>
<svg
   xmlns:dc="http://purl.org/dc/elements/1.1/"
   xmlns:cc="http://creativecommons.org/ns#"
   xmlns:rdf="http://www.w3.org/1999/02/22-rdf-syntax-ns#"
   xmlns:svg="http://www.w3.org/2000/svg"
   xmlns="http://www.w3.org/2000/svg"
   viewBox="0 0 1348.6133 154.89333"
   height="154.89333"
   width="1348.6133"
   xml:space="preserve"
   id="svg2"
   version="1.1"><metadata
     id="metadata8"><rdf:RDF><cc:Work
         rdf:about=""><dc:format>image/svg+xml</dc:format><dc:type
           rdf:resource="http://purl.org/dc/dcmitype/StillImage" /></cc:Work></rdf:RDF></metadata><defs
     id="defs6"><clipPath
       id="clipPath20"
       clipPathUnits="userSpaceOnUse"><path
         id="path18"
         d="M 0,1161.67 V 0 h 10114.6 v 1161.67 z" /></clipPath></defs><g
     transform="matrix(1.3333333,0,0,-1.3333333,0,154.89333)"
     id="g10"><g
       transform="scale(0.1)"
       id="g12"><g
         id="g14"><g
           clip-path="url(#clipPath20)"
           id="g16"><path
             id="path22"
             style="fill:#FFFFFF;fill-opacity:1;fill-rule:nonzero;stroke:none"
             d="m 4531.62,1003.66 93.59,-126.312 c 0,0.011 0,0.015 -0.01,0.027 l -93.58,126.285" /><path
             id="path24"
             style="fill:#FFFFFF;fill-opacity:1;fill-rule:nonzero;stroke:none"
             d="m 4444.75,1101.31 v -0.42 c 0,0.16 0.03,0.27 0.03,0.42 h -0.03" /><path
             id="path26"
             style="fill:#FFFFFF;fill-opacity:1;fill-rule:nonzero;stroke:none"
             d="m 4653.86,949.023 -42.28,57.187 30.39,-41.108 c 3.27,-4.418 7.58,-10.247 11.89,-16.079" /><path
             id="path28"
             style="fill:#FFFFFF;fill-opacity:1;fill-rule:nonzero;stroke:none"
             d="m 4694.61,1153.01 v -7.54 c 18.46,0 34.26,-2.42 47.42,-7.27 13.14,-4.84 21.85,-11.42 26.12,-19.72 4.27,-8.31 6.41,-22.84 6.41,-43.61 V 805.832 c -0.01,-5.41 -1.3,-7.141 -3.4,-7.91 -2.16,-0.805 -5.17,-0.5 -8.49,3.973 l -7.57,10.246 -101.24,136.882 c -4.31,5.832 -8.62,11.661 -11.89,16.079 l -30.39,41.108 -42.3,57.18 -57.62,77.91 -8.64,11.67 h -144.79 v -7.85 c 25.14,0 41.35,-1.73 48.62,-5.19 7.27,-3.46 12.58,-11.31 15.92,-23.53 3.35,-12.23 5.02,-36.34 5.02,-72.33 V 779.219 c 0,-28.379 -1.1,-46.367 -3.29,-53.985 -2.19,-7.617 -9.17,-14.707 -20.93,-21.277 -11.77,-6.582 -28.85,-10.676 -51.22,-12.297 v -7.519 h 175.11 v 7.519 c -24.92,0 -43.61,3.582 -56.07,10.735 -12.45,7.148 -20.01,15 -22.66,23.535 -2.66,8.535 -3.98,26.297 -3.98,53.289 v 322.091 h 0.03 c 0.08,5.29 1.75,7.15 3.87,7.86 2.81,0.94 4.77,0.01 8.01,-4.35 l 2.6,-3.51 18.84,-25.42 53.52,-72.23 21.4,-28.887 72.18,-97.398 c 0.01,-0.012 0.01,-0.016 0.01,-0.027 l 11.89,-16.043 76.26,-102.914 63.27,-85.371 h 14.88 v 396.66 c 0,20.07 1.56,34.32 4.68,42.74 3.11,8.42 10.38,15.63 21.79,21.63 11.43,6 27.05,9.8 46.9,11.42 v 7.54 h -170.27" /><path
             id="path30"
             style="fill:#FFFFFF;fill-opacity:1;fill-rule:nonzero;stroke:none"
             d="m 609.781,691.316 c -21.226,0 -35.586,2.778 -43.086,8.313 -7.5,5.539 -12.175,14.016 -14.019,25.437 -1.848,11.418 -2.77,35.586 -2.77,72.5 v 247.394 c 0,39 1.211,63.68 3.641,74.07 2.422,10.38 7.207,17.47 14.359,21.28 7.153,3.81 22.266,5.71 45.336,5.71 l 17.125,-0.12 -0.07,7.9 -147.742,-0.09 -17.539,-40.74 -57.403,-133.337 -45.558,-105.828 -39.063,-90.739 c -3.515,-8.015 -11.543,-10.097 -15.988,-0.046 l -0.613,1.375 -86.418,195.238 -76.746,173.387 H 0 v -8.38 h 12.8008 c 23.7656,0 39.168,-2.08 46.2031,-6.23 7.0352,-4.15 11.6523,-11.65 13.8438,-22.5 2.1914,-10.85 3.289,-34.96 3.289,-72.34 V 823.684 C 76.1367,784.91 74.75,758.379 71.9805,744.07 69.2148,729.766 61.543,717.727 48.9688,707.941 36.3984,698.145 20.0742,692.676 0,691.531 v -7.515 h 167.848 v 7.515 c -21.692,1.391 -38.532,7.192 -50.528,17.453 -12,10.246 -19.152,22.168 -21.4567,35.782 -2.3086,13.613 -3.461,39.226 -3.461,76.836 v 262.708 c 0.0274,4.83 5.1993,7.62 8.1677,1.88 l 88.297,-198.608 59.844,-134.613 30.777,-69.231 h 16.543 l 29.969,69.231 52.316,120.836 33.879,78.265 c 0,0 37.575,86.88 53.953,124.7 4.395,10.14 7.274,16.8 7.481,17.25 2.918,6.45 8.449,3.53 8.449,-1.47 0,-1.54 0,-23.19 0,-52.28 0,-64.743 0,-166.465 0,-166.465 v -76.239 c 0,-39.214 -1.098,-64.199 -3.289,-74.918 -2.187,-10.734 -7.148,-18.632 -14.879,-23.71 -7.726,-5.083 -21.512,-7.622 -41.355,-7.622 h -16.614 v -7.515 h 224.602 v 7.515 h -20.762" /><path
             id="path32"
             style="fill:#FFFFFF;fill-opacity:1;fill-rule:nonzero;stroke:none"
             d="m 2109.69,929.523 c -5.42,-0.632 -11,-1.156 -16.93,-1.453 -18.46,-0.922 -38.65,-0.097 -38.65,-0.097 -8.25,-0.274 -14.99,4.769 -14.99,13.023 v 187.594 c 0,8.26 6.73,15.45 14.96,16 0.01,0 0.02,0 0.02,0 0.02,0 0.37,0.02 0.91,0.05 4.81,0.22 9.33,0.34 13.52,0.34 15.24,0 28.87,-0.83 41.16,-2.33 32.38,-3.96 54.69,-13.06 66.64,-27.44 16.5,-19.84 24.75,-49.29 24.75,-82.28 0,-18.91 -2.42,-34.832 -7.27,-47.758 -4.84,-12.922 -11.48,-23.36 -19.9,-31.32 -8.42,-7.957 -19.43,-14.012 -33.05,-18.168 -9.24,-2.817 -19.69,-4.832 -31.17,-6.161 z m 284.15,-237.367 c -27.68,0.93 -51.68,8.774 -71.98,23.535 -20.3,14.77 -48.22,53.539 -83.74,101.289 -43.59,58.844 -84.63,92.993 -104.26,102.438 43.84,5.309 86.49,18.805 109.09,40.492 22.61,21.688 33.92,47.87 33.92,78.56 0,26.3 -8.65,48.91 -25.96,67.83 -17.3,18.91 -39.97,32.53 -68,40.83 -28.03,8.31 -64.43,12.46 -109.18,12.46 -26.31,0 -61.84,-1.04 -106.6,-3.11 l -67.13,-3.46 v -5.47 h 7.95 c 23.77,0 39.23,-2.07 46.38,-6.23 7.15,-4.15 11.76,-11.65 13.84,-22.49 2.08,-10.85 3.11,-34.95 3.11,-72.33 V 797.781 c 0,-39.215 -1.03,-64.195 -3.11,-74.922 -2.08,-10.73 -6.98,-18.629 -14.71,-23.711 -7.72,-5.078 -21.62,-7.617 -41.7,-7.617 h -15.23 v -7.515 h 224.61 v 7.515 h -22.49 c -21.23,0 -35.6,2.778 -43.09,8.313 -7.5,5.539 -12.12,14.011 -13.85,25.437 -1.73,11.418 -2.59,35.586 -2.59,72.5 v 118.59 h 18.69 c 12.68,0 22.03,-2.133 28.02,-6.398 6,-4.27 16.96,-16.149 32.89,-35.649 15.91,-19.496 31.26,-46.148 46.02,-67.383 20.64,-29.714 38.88,-54.214 54.76,-73.679 15.83,-17.864 48.24,-48.067 86.66,-49.043 h 87.68 v 7.937" /><path
             id="path34"
             style="fill:#FFFFFF;fill-opacity:1;fill-rule:nonzero;stroke:none"
             d="m 1358.2,746.809 c -28.24,-37.832 -66.68,-56.758 -115.3,-56.758 -55.42,0 -97,18.926 -124.71,56.758 -27.71,37.839 -39.54,96.82 -39.54,172.261 0,74.293 13.09,133.19 40.8,171.14 27.71,37.95 67.59,56.93 119.61,56.93 52.87,0 93.22,-19.44 121.04,-58.31 27.81,-38.88 42.48,-97.541 42.48,-170.451 0,-74.981 -16.14,-133.731 -44.38,-171.57 z m -118.86,414.861 c -66.63,0 -122.23,-21.92 -166.78,-65.75 -44.57,-43.84 -66.85,-101.979 -66.85,-174.428 0,-74.285 21.97,-133.926 65.89,-178.914 43.92,-44.988 100.15,-67.488 168.7,-67.488 70.45,0 127.27,22.5 170.45,67.488 43.18,44.988 64.77,103.82 64.77,176.492 0,74.989 -22.55,134.16 -67.64,177.54 -45.09,43.37 -101.27,65.06 -168.54,65.06" /><path
             id="path36"
             style="fill:#FFFFFF;fill-opacity:1;fill-rule:nonzero;stroke:none"
             d="m 2988.76,867.512 h 11.08 c 18.46,0 31.14,-1.457 38.07,-4.344 6.92,-2.879 12.05,-8.559 15.4,-16.992 3.35,-8.434 5.02,-25.246 5.02,-50.446 0,-21.5 -3.58,-39.292 -10.73,-53.406 -7.14,-14.101 -20.51,-26.062 -40.1,-35.886 -19.58,-9.817 -41.35,-14.739 -65.32,-14.739 -46.77,0 -85.95,17.395 -117.52,52.168 -31.57,34.766 -47.35,93.867 -47.35,177.281 0,83.652 16.36,141.882 49.09,174.692 32.73,32.81 71.1,49.22 115.12,49.22 42.64,0 78.88,-14.11 108.73,-42.31 29.84,-28.21 48.11,-66.48 54.79,-114.809 h 7.98 v 156.769 h -7.98 c -2.08,-18.68 -6.92,-36.1 -14.54,-52.25 -41.06,46.14 -92.97,69.21 -155.72,69.21 -72.91,0 -130.59,-25.26 -173.04,-75.79 -42.45,-50.53 -63.68,-109.357 -63.68,-176.493 0,-67.832 22.27,-123.84 66.8,-168.02 44.52,-44.179 100.35,-66.277 167.49,-66.277 33.46,0 69.79,7.383 109.01,22.144 28.85,10.852 52.15,16.274 69.91,16.274 4.39,0 9.35,-0.461 14.89,-1.391 v 49.836 c 0,40.383 1.26,65.817 3.8,76.313 2.54,10.5 7.79,17.996 15.75,22.496 7.96,4.496 23.12,6.75 45.51,6.75 v 9.629 h -202.46 v -9.629" /><path
             id="path38"
             style="fill:#FFFFFF;fill-opacity:1;fill-rule:nonzero;stroke:none"
             d="m 8483.42,739.297 c -12.55,-17.031 -25.79,-28.086 -39.72,-33.145 -13.94,-5.066 -35.31,-7.597 -64.14,-7.597 h -35.58 c -26.94,0 -44.53,2.375 -52.7,7.097 -8.16,4.731 -13.19,11.36 -15.03,19.907 -1.85,8.535 -2.78,29.753 -2.78,63.671 v 255.18 c 0,39 1.2,63.68 3.64,74.07 2.41,10.38 7.21,17.47 14.36,21.28 7.15,3.81 22.28,5.71 45.36,5.71 h 20.76 v 7.55 h -225.64 v -7.55 h 10.39 c 23.76,0 39.12,-2.08 46.18,-6.23 7.02,-4.15 11.63,-11.65 13.85,-22.5 2.17,-10.84 3.27,-34.95 3.27,-72.33 V 798.391 c 0,-39.219 -1.1,-64.2 -3.27,-74.922 -2.22,-10.735 -7.16,-18.633 -14.9,-23.711 -7.71,-5.078 -21.61,-7.617 -41.67,-7.617 h -13.85 v -8.403 h 389.82 l 3.38,130.571 h -7.35 c -10.38,-37.258 -21.83,-57.993 -34.38,-75.012" /><path
             id="path40"
             style="fill:#FFFFFF;fill-opacity:1;fill-rule:nonzero;stroke:none"
             d="m 3840.53,856.781 39.05,-94.64 c 10.61,-25.149 15.91,-40.254 15.91,-45.332 0,-9.922 -3.97,-16.555 -11.93,-19.907 -7.96,-3.336 -23.24,-5.015 -45.86,-5.015 v -7.93 h 184.11 v 7.93 c -16.27,1.621 -28.48,5.593 -36.61,11.941 -8.13,6.348 -14.61,15.059 -19.41,26.145 l -21.51,49.136 -160.2,380.481 h -13.34 L 3634.37,833.871 c -9.78,-23.363 -15.37,-36.781 -16.77,-40.226 -14.3,-36.622 -28.78,-68.165 -38.93,-79.563 -10.15,-11.394 -25.61,-18.723 -46.37,-21.941 v -7.93 h 139.46 v 7.93 c -14.99,0 -27.28,3.64 -36.85,10.906 -9.57,7.265 -14.37,17.937 -14.37,32.012 0,13.144 11.25,48.82 29.25,91.957 l 10.45,25.265 c 0,0 1.84,4.5 7.15,4.5 4.13,0 91.42,0 136.84,0 l -6.63,15.574 h -114.06 c -8.25,0 -12.42,6.235 -9.26,13.856 l 0.73,1.769 H 3675 l 33.87,81.786 36.75,88.754 c 1.58,3.82 3.66,5.18 5.74,5.18 2.08,0 4.15,-1.36 5.73,-5.18 l 2.82,-6.79 58.63,-141.773 9.82,-23.742 c 0,0 0,-0.004 0,-0.008 l 5.74,-13.852" /><path
             id="path42"
             style="fill:#FFFFFF;fill-opacity:1;fill-rule:nonzero;stroke:none"
             d="m 7694.98,1118.27 c 2.45,10.38 7.24,17.48 14.4,21.28 7.15,3.81 22.24,5.72 45.3,5.72 h 6.93 v 7.75 H 7548.1 v -7.75 h 12.46 c 23.77,0 39.13,-2.08 46.19,-6.23 7.01,-4.16 11.58,-11.66 13.67,-22.5 2.07,-10.84 3.13,-34.95 3.13,-72.33 v -96.237 c 0,-8.25 -3.95,-10.832 -12.2,-10.832 h -220 c -8.25,0 -12.5,2.582 -12.5,10.832 v 96.437 c 0,39 1.2,63.68 3.65,74.07 2.4,10.38 7.19,17.47 14.35,21.28 7.15,3.81 22.15,5.71 44.99,5.71 h 8.67 v 7.55 h -211.47 v -7.55 h 8.67 c 23.77,0 39.13,-2.08 46.19,-6.23 7.01,-4.15 11.63,-11.65 13.85,-22.5 2.17,-10.84 3.27,-34.95 3.27,-74.83 V 795.891 c 0,-36.719 -1.1,-61.7 -3.27,-72.422 -2.22,-10.735 -7.16,-18.633 -14.9,-23.711 -7.72,-5.078 -21.6,-7.617 -41.67,-7.617 h -12.14 v -8.403 h 211.47 v 8.403 h -12.14 c -20.99,0 -35.25,2.769 -42.72,8.308 -7.52,5.535 -12.18,14.016 -14.02,25.442 -1.85,11.414 -2.78,35.586 -2.78,72.5 v 112.5 c 0,8.25 3.83,12.5 12.08,12.5 h 219.59 c 8.25,0 13.03,-4.664 13.03,-12.918 V 798.391 c 0,-39.219 -1.06,-64.2 -3.13,-74.922 -2.09,-10.735 -6.98,-18.633 -14.73,-23.711 -7.71,-5.078 -21.51,-7.617 -41.34,-7.617 h -16.25 v -8.403 h 213.51 v 8.403 h -10.71 c -20.99,0 -35.3,2.769 -42.91,8.308 -7.61,5.535 -12.32,14.016 -14.03,25.442 -1.75,11.414 -2.58,35.586 -2.58,72.5 v 245.819 c 0,38.99 1.2,63.68 3.6,74.06" /><path
             id="path44"
             style="fill:#FFFFFF;fill-opacity:1;fill-rule:nonzero;stroke:none"
             d="m 6841.75,877.891 c -11.07,19.379 -25.8,34.55 -44.16,45.507 -18.32,10.957 -47.71,25.391 -88.13,43.305 -42.27,18.828 -71.44,35.857 -87.54,51.067 -16.33,14.99 -24.5,33.32 -24.5,55 0,17.98 6.51,34.53 19.52,49.63 13.06,15.1 33.54,22.66 61.46,22.66 7.02,0 13.83,-0.63 20.44,-1.8 3.39,-0.6 6.72,-1.37 10,-2.27 17.05,-4.74 32.69,-13.58 46.9,-26.64 22.24,-20.47 37.79,-48.54 46.56,-84.19 h 6.35 v 122.86 h -6.35 c -1.39,-14.77 -7.38,-28.49 -18,-41.18 -18.46,20.3 -36.45,33.68 -53.98,40.14 -6.97,2.57 -14.15,4.47 -21.48,6.02 -3.3,0.69 -6.63,1.31 -10,1.8 -8.01,1.16 -16.17,1.87 -24.59,1.87 -35.53,0 -64.93,-11.13 -88.08,-33.4 -23.22,-22.26 -34.8,-50.12 -34.8,-83.57 0,-21.92 5.35,-42.57 16.11,-61.95 10.7,-19.383 25.65,-35.129 44.8,-47.238 19.15,-12.114 47.53,-26.242 85.14,-42.399 42.21,-17.992 71.29,-34.855 87.2,-50.57 15.92,-15.949 23.91,-35.719 23.91,-59.289 0,-23.352 -9.09,-44.453 -27.19,-63.281 -18.12,-18.84 -43.64,-28.274 -76.64,-28.274 -73.37,0 -119.88,49.258 -139.49,147.778 h -8.44 V 688.586 h 8.44 c 3.69,19.617 9.37,34.844 16.98,45.684 34.38,-39.454 77.3,-59.18 128.74,-59.18 44.76,0 80.52,12.578 107.29,37.722 26.76,25.149 40.14,57.793 40.14,97.942 0,25.379 -5.53,47.758 -16.61,67.137" /><path
             id="path46"
             style="fill:#FFFFFF;fill-opacity:1;fill-rule:nonzero;stroke:none"
             d="m 9961.34,1153.02 v -8.38 c 20.76,0 35.16,-4.04 43.26,-12.12 8.1,-8.07 12.1,-16.95 12.1,-26.64 0,-10.61 -7.6,-28.61 -22.83,-53.99 l -24.6,-43.36 -60.43,-106.522 c -4.07,-7.172 -10.79,-7.203 -14.93,-0.07 l -3.92,6.753 -75.28,129.699 -25.54,43.99 c -11.75,19.41 -17.66,32.36 -17.66,38.83 0,16.17 17.8,24.26 53.48,24.26 v 7.55 h -190.35 v -7.55 c 20.31,-0.47 34.38,-4.44 42.23,-11.94 7.84,-7.5 23.62,-30.63 47.38,-69.39 l 78.77,-134.976 24.52,-42.023 13.69,-23.442 v -65.933 c 0,-39.219 -1.02,-64.2 -3.09,-74.922 -2.08,-10.735 -7.01,-18.633 -14.73,-23.711 -7.75,-5.078 -21.64,-7.617 -41.71,-7.617 h -7.61 v -7.778 h 200.03 v 7.778 c -23.3,0 -38.9,2.254 -46.88,6.757 -7.94,4.493 -13.15,12.227 -15.56,23.184 -2.44,10.953 -3.64,36.395 -3.64,76.309 v 70.437 l 10.89,18.938 50.34,87.566 43.93,76.493 c 20.3,33.68 37,56.92 50.1,69.73 13,12.8 30.1,20.71 51.3,23.71 v 8.38 h -153.26" /><path
             id="path48"
             style="fill:none;stroke:#FFFFFF;stroke-width:10;stroke-linecap:butt;stroke-linejoin:miter;stroke-miterlimit:10;stroke-dasharray:none;stroke-opacity:1"
             d="m 5363.02,919.641 c 0,-37.282 -30.22,-67.5 -67.5,-67.5 -37.27,0 -67.5,30.218 -67.5,67.5 0,37.277 30.23,67.5 67.5,67.5 37.28,0 67.5,-30.223 67.5,-67.5 z" /><path
             id="path50"
             style="fill:#FFFFFF;fill-opacity:1;fill-rule:nonzero;stroke:none"
             d="m 4776.06,132.719 c -1.44,4.332 -3.36,10.09 -7.2,15.133 -8.4,11.757 -22.08,17.043 -36.72,17.043 -18.24,0 -39.84,-7.684 -39.84,-30.247 0,-20.648 18.95,-26.636 28.56,-29.519 4.8,-1.449 29.04,-7.6876 34.32,-9.5978 9.12,-2.8828 39.12,-12.7304 39.12,-44.8906 C 4794.3,26.8789 4774.38,0 4730.94,0 c -18.01,0 -30.96,4.55859 -39.84,10.3086 -12.96,8.6523 -20.17,21.1328 -23.05,36.7305 l 16.09,8.4023 c 0.24,-6.7226 0.95,-13.6797 4.08,-19.6797 7.67,-15.8398 25.2,-21.8398 42.72,-21.8398 32.64,0 47.04,17.9883 47.04,36 0,12.2383 -5.76,19.1992 -10.32,22.7969 -7.67,6.4804 -17.52,8.8828 -39.84,14.6406 -24.01,6.2422 -51.13,15.1206 -51.13,46.5706 0,33.367 29.53,44.168 55.93,44.168 43.44,0 54.48,-27.86 58.32,-37.207 l -14.88,-8.172" /><path
             id="path52"
             style="fill:#FFFFFF;fill-opacity:1;fill-rule:nonzero;stroke:none"
             d="m 5055.91,68.3984 -32.64,86.4026 -33.13,-86.4026 z m 41.76,-64.07809 h -17.52 l -19.44,51.12109 h -75.85 l -19.2,-51.12109 h -18 L 5016.78,173.77 h 13.45 L 5097.67,4.32031" /><path
             id="path54"
             style="fill:#FFFFFF;fill-opacity:1;fill-rule:nonzero;stroke:none"
             d="M 5373.67,4.32031 H 5263.74 V 174.016 h 16.31 V 19.1992 h 93.62 V 4.32031" /><path
             id="path56"
             style="fill:#FFFFFF;fill-opacity:1;fill-rule:nonzero;stroke:none"
             d="m 5593.8,164.172 c -43.2,0 -56.4,-42.723 -56.4,-75.1329 0,-31.4375 12.48,-74.6485 55.68,-74.6485 52.33,0 55.93,61.9297 55.93,75.6094 0.23,30.719 -12.25,74.172 -55.21,74.172 z m 50.88,-142.09 C 5628.12,2.64062 5607.72,0 5593.8,0 c -20.88,0 -38.16,6.46875 -52.09,23.0391 -12,13.9218 -21.35,36.2421 -21.35,66.25 0,46.7929 23.03,88.8089 73.44,88.8089 56.17,0 72.73,-49.457 72.48,-87.8597 -0.23,-25.9063 -7.92,-52.0781 -21.6,-68.1563" /><path
             id="path58"
             style="fill:#FFFFFF;fill-opacity:1;fill-rule:nonzero;stroke:none"
             d="m 5977.8,4.32031 h -15.84 L 5862.35,150.73 V 4.32031 h -15.6 V 173.77 h 15.6 L 5963.4,28.8008 5961.96,173.77 h 15.84 V 4.32031" /><path
             id="path60"
             style="fill:#FFFFFF;fill-opacity:1;fill-rule:nonzero;stroke:none"
             d="m 6151.87,703.828 c -8.13,6.348 -14.61,15.059 -19.41,26.145 l -21.51,49.136 -160.2,380.481 h -13.34 L 5801.04,833.871 c -9.78,-23.363 -15.37,-36.781 -16.77,-40.226 -14.3,-36.622 -28.78,-68.165 -38.93,-79.563 -10.15,-11.394 -25.61,-18.723 -46.37,-21.941 v -7.93 h 139.46 v 7.93 c -14.99,0 -27.28,3.64 -36.85,10.906 -9.57,7.265 -14.37,17.937 -14.37,32.012 0,13.144 11.25,48.82 29.25,91.957 l 10.45,25.265 c 0,0 1.84,4.5 7.15,4.5 2.93,0 47.76,0 89.78,0 17.17,0 33.89,0 47.06,0 l -6.63,15.574 h -114.06 c -8.25,0 -12.42,6.235 -9.26,13.856 l 0.73,1.769 h -0.01 l 33.87,81.786 36.75,88.754 c 1.58,3.82 3.66,5.18 5.74,5.18 2.08,0 4.15,-1.36 5.73,-5.18 l 2.82,-6.79 58.63,-141.773 9.82,-23.742 c 0,0 0,-0.004 0,-0.008 l 5.74,-13.852 6.43,-15.574 39.05,-94.64 c 10.61,-25.149 15.91,-40.254 15.91,-45.332 0,-9.922 -3.97,-16.555 -11.93,-19.907 -7.96,-3.336 -23.24,-5.015 -45.86,-5.015 v -7.93 h 184.11 v 7.93 c -16.27,1.621 -28.48,5.593 -36.61,11.941" /><path
             id="path62"
             style="fill:#FFFFFF;fill-opacity:1;fill-rule:nonzero;stroke:none"
             d="m 9271.13,814.309 c -10.38,-37.258 -21.83,-57.993 -34.38,-75.012 -12.55,-17.031 -25.79,-28.086 -39.72,-33.145 -13.94,-5.066 -35.31,-7.597 -64.14,-7.597 h -35.58 c -26.94,0 -44.53,2.375 -52.7,7.097 -8.16,4.731 -13.19,11.36 -15.03,19.907 -1.27,5.867 -2.09,17.879 -2.5,35.746 -0.18,8.121 -0.28,17.328 -0.28,27.925 v 119.469 c 0,8.254 6.75,15 15,15 h 117.75 l -0.12,0.27 c 0.02,0 0.05,0 0.07,0 l -6.63,15.574 h -0.12 l -0.04,0.098 H 9041.8 c -8.25,0 -15,6.746 -15,15 v 183.329 h 64.84 c 32.76,0 56.52,-1.78 71.28,-5.36 14.77,-3.57 27.5,-12.23 38.21,-25.95 10.75,-13.73 19.8,-36.98 27.19,-69.74 h 7.89 l -10.71,116.1 h -327.66 v -7.75 c 22.6,0 37.42,-2.26 44.43,-6.75 7.06,-4.5 11.53,-12.41 13.52,-23.71 1.94,-11.3 2.96,-34.84 2.96,-70.6 V 770.832 c -0.42,-23.598 -1.45,-39.414 -3.05,-47.363 -2.22,-10.735 -7.16,-18.633 -14.9,-23.711 -7.71,-5.078 -21.61,-7.617 -41.67,-7.617 h -13.85 v -8.403 h 389.82 l 3.38,130.571 h -7.35" /></g></g></g></g></svg>
