<?xml version="1.0" encoding="UTF-8" standalone="no"?>
<!DOCTYPE svg PUBLIC "-//W3C//DTD SVG 20010904//EN"
              "http://www.w3.org/TR/2001/REC-SVG-20010904/DTD/svg10.dtd">

<svg xmlns="http://www.w3.org/2000/svg"
     width="6.4in" height="3.6in"
     viewBox="0 0 1920 1080">
  <path id="Path #1"
        fill="white" stroke="white" stroke-width="0.1"
        d="M 114.56,288.00
           C 114.56,288.00 152.06,288.00 152.06,288.00
             152.06,288.00 152.06,291.34 152.06,291.34
             152.06,291.34 130.89,346.00 130.89,346.00
             130.89,346.00 122.66,346.00 122.66,346.00
             122.66,346.00 142.58,294.00 142.58,294.00
             142.58,294.00 114.56,294.00 114.56,294.00
             114.56,294.00 114.56,288.00 114.56,288.00 Z
           M 191.47,314.75
           C 195.25,315.55 198.20,317.22 200.31,319.75
             202.44,322.27 203.50,325.39 203.50,329.09
             203.50,334.79 201.52,339.20 197.56,342.33
             193.60,345.45 187.98,347.00 180.69,347.00
             178.24,347.00 175.72,346.75 173.12,346.25
             170.53,345.75 167.85,345.00 165.09,344.00
             165.09,344.00 165.09,336.00 165.09,336.00
             167.28,337.65 169.68,338.89 172.28,339.73
             174.88,340.58 177.61,341.00 180.45,341.00
             185.40,341.00 189.16,340.00 191.75,338.00
             194.34,335.99 195.64,333.08 195.64,329.27
             195.64,325.73 194.44,322.98 192.03,320.98
             189.62,319.00 186.27,318.00 181.97,318.00
             181.97,318.00 175.17,318.00 175.17,318.00
             175.17,318.00 175.17,312.00 175.17,312.00
             175.17,312.00 182.28,312.00 182.28,312.00
             186.16,312.00 189.13,311.20 191.19,309.59
             193.25,307.98 194.28,305.66 194.28,302.64
             194.28,299.54 193.22,297.16 191.09,295.50
             188.97,293.84 185.93,293.00 181.97,293.00
             179.81,293.00 177.49,293.33 175.02,293.98
             172.55,294.63 169.83,295.64 166.86,297.00
             166.86,297.00 166.86,290.00 166.86,290.00
             169.85,289.00 172.65,288.25 175.27,287.75
             177.89,287.25 180.36,287.00 182.67,287.00
             188.66,287.00 193.40,288.36 196.89,291.06
             200.38,293.76 202.12,297.41 202.12,302.02
             202.12,305.23 201.20,307.94 199.34,310.16
             197.50,312.37 194.88,313.90 191.47,314.75 Z
           M 218.64,288.00
           C 218.64,288.00 249.61,288.00 249.61,288.00
             249.61,288.00 249.61,294.00 249.61,294.00
             249.61,294.00 225.86,294.00 225.86,294.00
             225.86,294.00 225.86,308.06 225.86,308.06
             227.00,307.71 228.15,307.45 229.30,307.27
             230.44,307.09 231.59,307.00 232.73,307.00
             239.24,307.00 244.40,308.80 248.20,312.39
             252.00,315.98 253.91,320.86 253.91,327.00
             253.91,333.32 251.95,338.24 248.05,341.75
             244.14,345.25 238.63,347.00 231.53,347.00
             229.08,347.00 226.59,346.75 224.05,346.25
             221.50,345.75 218.88,345.00 216.17,344.00
             216.17,344.00 216.17,336.00 216.17,336.00
             218.52,337.69 220.94,338.95 223.44,339.77
             225.94,340.59 228.58,341.00 231.38,341.00
             235.88,341.00 239.44,339.75 242.06,337.23
             244.70,334.73 246.02,331.31 246.02,327.00
             246.02,322.69 244.70,319.28 242.06,316.77
             239.44,314.26 235.88,313.00 231.38,313.00
             229.26,313.00 227.16,313.25 225.06,313.73
             222.97,314.21 220.83,314.97 218.64,316.00
             218.64,316.00 218.64,288.00 218.64,288.00 Z
           M 286.44,293.00
           C 282.38,293.00 279.32,295.00 277.27,299.00
             275.22,302.99 274.20,309.00 274.20,317.02
             274.20,325.02 275.22,331.02 277.27,335.02
             279.32,339.01 282.38,341.00 286.44,341.00
             290.52,341.00 293.58,339.01 295.62,335.02
             297.68,331.02 298.70,325.02 298.70,317.02
             298.70,309.00 297.68,302.99 295.62,299.00
             293.58,295.00 290.52,293.00 286.44,293.00 Z
           M 286.44,287.00
           C 292.98,287.00 297.97,289.56 301.42,294.69
             304.87,299.81 306.59,307.26 306.59,317.02
             306.59,326.76 304.87,334.19 301.42,339.31
             297.97,344.44 292.98,347.00 286.44,347.00
             279.91,347.00 274.91,344.44 271.45,339.31
             268.00,334.19 266.28,326.76 266.28,317.02
             266.28,307.26 268.00,299.81 271.45,294.69
             274.91,289.56 279.91,287.00 286.44,287.00 Z
           M 388.53,293.00
           C 388.53,293.00 388.53,301.00 388.53,301.00
             385.88,298.32 383.04,296.32 380.03,295.00
             377.02,293.67 373.82,293.00 370.44,293.00
             363.77,293.00 358.66,295.06 355.12,299.17
             351.58,303.29 349.81,309.23 349.81,317.02
             349.81,324.78 351.58,330.71 355.12,334.83
             358.66,338.95 363.77,341.00 370.44,341.00
             373.82,341.00 377.02,340.34 380.03,339.02
             383.04,337.68 385.88,335.68 388.53,333.00
             388.53,333.00 388.53,341.00 388.53,341.00
             385.77,343.00 382.85,344.50 379.77,345.50
             376.68,346.50 373.42,347.00 369.98,347.00
             361.15,347.00 354.19,344.32 349.11,338.97
             344.04,333.61 341.50,326.29 341.50,317.02
             341.50,307.73 344.04,300.40 349.11,295.05
             354.19,289.68 361.15,287.00 369.98,287.00
             373.47,287.00 376.76,287.50 379.84,288.50
             382.93,289.50 385.82,291.00 388.53,293.00 Z
           M 420.34,295.61
           C 420.34,295.61 409.64,324.00 409.64,324.00
             409.64,324.00 431.09,324.00 431.09,324.00
             431.09,324.00 420.34,295.61 420.34,295.61 Z
           M 415.89,288.00
           C 415.89,288.00 424.84,288.00 424.84,288.00
             424.84,288.00 447.06,346.00 447.06,346.00
             447.06,346.00 438.86,346.00 438.86,346.00
             438.86,346.00 433.55,330.00 433.55,330.00
             433.55,330.00 407.27,330.00 407.27,330.00
             407.27,330.00 401.95,346.00 401.95,346.00
             401.95,346.00 393.62,346.00 393.62,346.00
             393.62,346.00 415.89,288.00 415.89,288.00 Z
           M 455.86,288.00
           C 455.86,288.00 463.75,288.00 463.75,288.00
             463.75,288.00 463.75,312.00 463.75,312.00
             463.75,312.00 492.42,312.00 492.42,312.00
             492.42,312.00 492.42,288.00 492.42,288.00
             492.42,288.00 500.31,288.00 500.31,288.00
             500.31,288.00 500.31,346.00 500.31,346.00
             500.31,346.00 492.42,346.00 492.42,346.00
             492.42,346.00 492.42,318.00 492.42,318.00
             492.42,318.00 463.75,318.00 463.75,318.00
             463.75,318.00 463.75,346.00 463.75,346.00
             463.75,346.00 455.86,346.00 455.86,346.00
             455.86,346.00 455.86,288.00 455.86,288.00 Z
           M 535.34,295.61
           C 535.34,295.61 524.64,324.00 524.64,324.00
             524.64,324.00 546.09,324.00 546.09,324.00
             546.09,324.00 535.34,295.61 535.34,295.61 Z
           M 530.89,288.00
           C 530.89,288.00 539.84,288.00 539.84,288.00
             539.84,288.00 562.06,346.00 562.06,346.00
             562.06,346.00 553.86,346.00 553.86,346.00
             553.86,346.00 548.55,330.00 548.55,330.00
             548.55,330.00 522.27,330.00 522.27,330.00
             522.27,330.00 516.95,346.00 516.95,346.00
             516.95,346.00 508.62,346.00 508.62,346.00
             508.62,346.00 530.89,288.00 530.89,288.00 Z
           M 578.75,318.00
           C 578.75,318.00 578.75,340.00 578.75,340.00
             578.75,340.00 591.41,340.00 591.41,340.00
             595.66,340.00 598.80,339.10 600.84,337.30
             602.88,335.48 603.91,332.71 603.91,328.98
             603.91,325.23 602.88,322.45 600.84,320.67
             598.80,318.89 595.66,318.00 591.41,318.00
             591.41,318.00 578.75,318.00 578.75,318.00 Z
           M 578.75,294.00
           C 578.75,294.00 578.75,312.00 578.75,312.00
             578.75,312.00 590.42,312.00 590.42,312.00
             594.27,312.00 597.14,311.26 599.03,309.78
             600.93,308.30 601.88,306.04 601.88,303.00
             601.88,299.99 600.93,297.74 599.03,296.25
             597.14,294.75 594.27,294.00 590.42,294.00
             590.42,294.00 578.75,294.00 578.75,294.00 Z
           M 570.86,288.00
           C 570.86,288.00 591.02,288.00 591.02,288.00
             597.02,288.00 601.66,289.24 604.91,291.72
             608.16,294.20 609.80,297.72 609.80,302.28
             609.80,305.82 608.96,308.64 607.30,310.73
             605.63,312.82 603.18,314.12 599.95,314.64
             603.84,315.48 606.85,317.21 609.00,319.84
             611.14,322.48 612.22,325.77 612.22,329.72
             612.22,334.91 610.45,338.92 606.91,341.75
             603.36,344.59 598.33,346.00 591.80,346.00
             591.80,346.00 570.86,346.00 570.86,346.00
             570.86,346.00 570.86,288.00 570.86,288.00 Z
           M 645.34,295.61
           C 645.34,295.61 634.64,324.00 634.64,324.00
             634.64,324.00 656.09,324.00 656.09,324.00
             656.09,324.00 645.34,295.61 645.34,295.61 Z
           M 640.89,288.00
           C 640.89,288.00 649.84,288.00 649.84,288.00
             649.84,288.00 672.06,346.00 672.06,346.00
             672.06,346.00 663.86,346.00 663.86,346.00
             663.86,346.00 658.55,330.00 658.55,330.00
             658.55,330.00 632.27,330.00 632.27,330.00
             632.27,330.00 626.95,346.00 626.95,346.00
             626.95,346.00 618.62,346.00 618.62,346.00
             618.62,346.00 640.89,288.00 640.89,288.00 Z
           M 720.89,346.00
           C 720.89,346.00 698.62,288.00 698.62,288.00
             698.62,288.00 706.88,288.00 706.88,288.00
             706.88,288.00 725.34,336.83 725.34,336.83
             725.34,336.83 743.86,288.00 743.86,288.00
             743.86,288.00 752.06,288.00 752.06,288.00
             752.06,288.00 729.84,346.00 729.84,346.00
             729.84,346.00 720.89,346.00 720.89,346.00 Z
           M 775.34,295.61
           C 775.34,295.61 764.64,324.00 764.64,324.00
             764.64,324.00 786.09,324.00 786.09,324.00
             786.09,324.00 775.34,295.61 775.34,295.61 Z
           M 770.89,288.00
           C 770.89,288.00 779.84,288.00 779.84,288.00
             779.84,288.00 802.06,346.00 802.06,346.00
             802.06,346.00 793.86,346.00 793.86,346.00
             793.86,346.00 788.55,330.00 788.55,330.00
             788.55,330.00 762.27,330.00 762.27,330.00
             762.27,330.00 756.95,346.00 756.95,346.00
             756.95,346.00 748.62,346.00 748.62,346.00
             748.62,346.00 770.89,288.00 770.89,288.00 Z
           M 810.86,288.00
           C 810.86,288.00 818.75,288.00 818.75,288.00
             818.75,288.00 818.75,340.00 818.75,340.00
             818.75,340.00 847.14,340.00 847.14,340.00
             847.14,340.00 847.14,346.00 847.14,346.00
             847.14,346.00 810.86,346.00 810.86,346.00
             810.86,346.00 810.86,288.00 810.86,288.00 Z
           M 855.86,288.00
           C 855.86,288.00 863.75,288.00 863.75,288.00
             863.75,288.00 863.75,340.00 863.75,340.00
             863.75,340.00 892.14,340.00 892.14,340.00
             892.14,340.00 892.14,346.00 892.14,346.00
             892.14,346.00 855.86,346.00 855.86,346.00
             855.86,346.00 855.86,288.00 855.86,288.00 Z
           M 900.86,288.00
           C 900.86,288.00 937.73,288.00 937.73,288.00
             937.73,288.00 937.73,294.00 937.73,294.00
             937.73,294.00 908.75,294.00 908.75,294.00
             908.75,294.00 908.75,312.00 908.75,312.00
             908.75,312.00 936.52,312.00 936.52,312.00
             936.52,312.00 936.52,318.00 936.52,318.00
             936.52,318.00 908.75,318.00 908.75,318.00
             908.75,318.00 908.75,340.00 908.75,340.00
             908.75,340.00 938.44,340.00 938.44,340.00
             938.44,340.00 938.44,346.00 938.44,346.00
             938.44,346.00 900.86,346.00 900.86,346.00
             900.86,346.00 900.86,288.00 900.86,288.00 Z
           M 943.84,288.00
           C 943.84,288.00 952.33,288.00 952.33,288.00
             952.33,288.00 968.50,311.86 968.50,311.86
             968.50,311.86 984.56,288.00 984.56,288.00
             984.56,288.00 993.03,288.00 993.03,288.00
             993.03,288.00 972.41,318.38 972.41,318.38
             972.41,318.38 972.41,346.00 972.41,346.00
             972.41,346.00 964.47,346.00 964.47,346.00
             964.47,346.00 964.47,318.38 964.47,318.38
             964.47,318.38 943.84,288.00 943.84,288.00 Z
           M 1053.52,319.50
           C 1055.21,320.05 1056.86,321.23 1058.45,323.05
             1060.05,324.85 1061.66,327.33 1063.28,330.48
             1063.28,330.48 1071.28,346.00 1071.28,346.00
             1071.28,346.00 1062.81,346.00 1062.81,346.00
             1062.81,346.00 1055.34,331.44 1055.34,331.44
             1053.41,327.64 1051.55,325.12 1049.73,323.88
             1047.93,322.62 1045.47,322.00 1042.34,322.00
             1042.34,322.00 1033.75,322.00 1033.75,322.00
             1033.75,322.00 1033.75,346.00 1033.75,346.00
             1033.75,346.00 1025.86,346.00 1025.86,346.00
             1025.86,346.00 1025.86,288.00 1025.86,288.00
             1025.86,288.00 1043.67,288.00 1043.67,288.00
             1050.34,288.00 1055.31,289.42 1058.59,292.25
             1061.88,295.09 1063.52,299.36 1063.52,305.08
             1063.52,308.82 1062.66,311.92 1060.95,314.38
             1059.25,316.84 1056.77,318.54 1053.52,319.50 Z
           M 1033.75,294.00
           C 1033.75,294.00 1033.75,316.00 1033.75,316.00
             1033.75,316.00 1043.67,316.00 1043.67,316.00
             1047.47,316.00 1050.34,315.07 1052.28,313.20
             1054.22,311.33 1055.19,308.58 1055.19,304.95
             1055.19,301.33 1054.22,298.60 1052.28,296.77
             1050.34,294.92 1047.47,294.00 1043.67,294.00
             1043.67,294.00 1033.75,294.00 1033.75,294.00 Z
           M 1089.75,294.00
           C 1089.75,294.00 1089.75,340.00 1089.75,340.00
             1089.75,340.00 1099.28,340.00 1099.28,340.00
             1107.33,340.00 1113.22,338.15 1116.95,334.45
             1120.69,330.76 1122.56,324.92 1122.56,316.94
             1122.56,309.01 1120.69,303.21 1116.95,299.53
             1113.22,295.84 1107.33,294.00 1099.28,294.00
             1099.28,294.00 1089.75,294.00 1089.75,294.00 Z
           M 1081.86,288.00
           C 1081.86,288.00 1098.06,288.00 1098.06,288.00
             1109.36,288.00 1117.66,290.34 1122.94,295.02
             1128.23,299.70 1130.88,307.00 1130.88,316.94
             1130.88,326.94 1128.22,334.28 1122.91,338.97
             1117.59,343.66 1109.31,346.00 1098.06,346.00
             1098.06,346.00 1081.86,346.00 1081.86,346.00
             1081.86,346.00 1081.86,288.00 1081.86,288.00 Z
           M 1145.38,336.00
           C 1145.38,336.00 1153.62,336.00 1153.62,336.00
             1153.62,336.00 1153.62,342.64 1153.62,342.64
             1153.62,342.64 1147.22,355.00 1147.22,355.00
             1147.22,355.00 1142.17,355.00 1142.17,355.00
             1142.17,355.00 1145.38,342.64 1145.38,342.64
             1145.38,342.64 1145.38,336.00 1145.38,336.00 Z
           M 1201.75,318.00
           C 1201.75,318.00 1201.75,340.00 1201.75,340.00
             1201.75,340.00 1214.41,340.00 1214.41,340.00
             1218.66,340.00 1221.80,339.10 1223.84,337.30
             1225.88,335.48 1226.91,332.71 1226.91,328.98
             1226.91,325.23 1225.88,322.45 1223.84,320.67
             1221.80,318.89 1218.66,318.00 1214.41,318.00
             1214.41,318.00 1201.75,318.00 1201.75,318.00 Z
           M 1201.75,294.00
           C 1201.75,294.00 1201.75,312.00 1201.75,312.00
             1201.75,312.00 1213.42,312.00 1213.42,312.00
             1217.27,312.00 1220.14,311.26 1222.03,309.78
             1223.93,308.30 1224.88,306.04 1224.88,303.00
             1224.88,299.99 1223.93,297.74 1222.03,296.25
             1220.14,294.75 1217.27,294.00 1213.42,294.00
             1213.42,294.00 1201.75,294.00 1201.75,294.00 Z
           M 1193.86,288.00
           C 1193.86,288.00 1214.02,288.00 1214.02,288.00
             1220.02,288.00 1224.66,289.24 1227.91,291.72
             1231.16,294.20 1232.80,297.72 1232.80,302.28
             1232.80,305.82 1231.96,308.64 1230.30,310.73
             1228.63,312.82 1226.18,314.12 1222.95,314.64
             1226.84,315.48 1229.85,317.21 1232.00,319.84
             1234.14,322.48 1235.22,325.77 1235.22,329.72
             1235.22,334.91 1233.45,338.92 1229.91,341.75
             1226.36,344.59 1221.33,346.00 1214.80,346.00
             1214.80,346.00 1193.86,346.00 1193.86,346.00
             1193.86,346.00 1193.86,288.00 1193.86,288.00 Z
           M 1248.86,288.00
           C 1248.86,288.00 1256.75,288.00 1256.75,288.00
             1256.75,288.00 1256.75,346.00 1256.75,346.00
             1256.75,346.00 1248.86,346.00 1248.86,346.00
             1248.86,346.00 1248.86,288.00 1248.86,288.00 Z
           M 1300.52,319.50
           C 1302.21,320.05 1303.86,321.23 1305.45,323.05
             1307.05,324.85 1308.66,327.33 1310.28,330.48
             1310.28,330.48 1318.28,346.00 1318.28,346.00
             1318.28,346.00 1309.81,346.00 1309.81,346.00
             1309.81,346.00 1302.34,331.44 1302.34,331.44
             1300.41,327.64 1298.55,325.12 1296.73,323.88
             1294.93,322.62 1292.47,322.00 1289.34,322.00
             1289.34,322.00 1280.75,322.00 1280.75,322.00
             1280.75,322.00 1280.75,346.00 1280.75,346.00
             1280.75,346.00 1272.86,346.00 1272.86,346.00
             1272.86,346.00 1272.86,288.00 1272.86,288.00
             1272.86,288.00 1290.67,288.00 1290.67,288.00
             1297.34,288.00 1302.31,289.42 1305.59,292.25
             1308.88,295.09 1310.52,299.36 1310.52,305.08
             1310.52,308.82 1309.66,311.92 1307.95,314.38
             1306.25,316.84 1303.77,318.54 1300.52,319.50 Z
           M 1280.75,294.00
           C 1280.75,294.00 1280.75,316.00 1280.75,316.00
             1280.75,316.00 1290.67,316.00 1290.67,316.00
             1294.47,316.00 1297.34,315.07 1299.28,313.20
             1301.22,311.33 1302.19,308.58 1302.19,304.95
             1302.19,301.33 1301.22,298.60 1299.28,296.77
             1297.34,294.92 1294.47,294.00 1290.67,294.00
             1290.67,294.00 1280.75,294.00 1280.75,294.00 Z
           M 1328.86,288.00
           C 1328.86,288.00 1340.61,288.00 1340.61,288.00
             1340.61,288.00 1355.50,327.59 1355.50,327.59
             1355.50,327.59 1370.45,288.00 1370.45,288.00
             1370.45,288.00 1382.22,288.00 1382.22,288.00
             1382.22,288.00 1382.22,346.00 1382.22,346.00
             1382.22,346.00 1374.52,346.00 1374.52,346.00
             1374.52,346.00 1374.52,295.09 1374.52,295.09
             1374.52,295.09 1359.48,335.00 1359.48,335.00
             1359.48,335.00 1351.55,335.00 1351.55,335.00
             1351.55,335.00 1336.52,295.09 1336.52,295.09
             1336.52,295.09 1336.52,346.00 1336.52,346.00
             1336.52,346.00 1328.86,346.00 1328.86,346.00
             1328.86,346.00 1328.86,288.00 1328.86,288.00 Z
           M 1397.86,288.00
           C 1397.86,288.00 1405.75,288.00 1405.75,288.00
             1405.75,288.00 1405.75,346.00 1405.75,346.00
             1405.75,346.00 1397.86,346.00 1397.86,346.00
             1397.86,346.00 1397.86,288.00 1397.86,288.00 Z
           M 1421.86,288.00
           C 1421.86,288.00 1432.48,288.00 1432.48,288.00
             1432.48,288.00 1458.34,336.52 1458.34,336.52
             1458.34,336.52 1458.34,288.00 1458.34,288.00
             1458.34,288.00 1466.00,288.00 1466.00,288.00
             1466.00,288.00 1466.00,346.00 1466.00,346.00
             1466.00,346.00 1455.38,346.00 1455.38,346.00
             1455.38,346.00 1429.52,297.48 1429.52,297.48
             1429.52,297.48 1429.52,346.00 1429.52,346.00
             1429.52,346.00 1421.86,346.00 1421.86,346.00
             1421.86,346.00 1421.86,288.00 1421.86,288.00 Z
           M 1521.62,337.97
           C 1521.62,337.97 1521.62,322.00 1521.62,322.00
             1521.62,322.00 1508.73,322.00 1508.73,322.00
             1508.73,322.00 1508.73,316.00 1508.73,316.00
             1508.73,316.00 1529.44,316.00 1529.44,316.00
             1529.44,316.00 1529.44,340.92 1529.44,340.92
             1526.39,342.92 1523.04,344.44 1519.36,345.47
             1515.69,346.49 1511.77,347.00 1507.61,347.00
             1498.49,347.00 1491.36,344.36 1486.22,339.08
             1481.07,333.80 1478.50,326.45 1478.50,317.02
             1478.50,307.57 1481.07,300.20 1486.20,294.92
             1491.35,289.64 1498.48,287.00 1507.59,287.00
             1511.39,287.00 1515.01,287.51 1518.44,288.53
             1521.86,289.54 1525.02,291.03 1527.91,293.00
             1527.91,293.00 1527.91,301.00 1527.91,301.00
             1524.99,298.34 1521.89,296.35 1518.61,295.02
             1515.33,293.67 1511.88,293.00 1508.27,293.00
             1501.13,293.00 1495.77,295.01 1492.19,299.03
             1488.60,303.05 1486.81,309.05 1486.81,317.02
             1486.81,324.96 1488.60,330.95 1492.19,334.97
             1495.77,338.99 1501.13,341.00 1508.27,341.00
             1511.05,341.00 1513.53,340.76 1515.72,340.27
             1517.91,339.78 1519.88,339.01 1521.62,337.97 Z
           M 1543.86,288.00
           C 1543.86,288.00 1551.75,288.00 1551.75,288.00
             1551.75,288.00 1551.75,312.00 1551.75,312.00
             1551.75,312.00 1580.42,312.00 1580.42,312.00
             1580.42,312.00 1580.42,288.00 1580.42,288.00
             1580.42,288.00 1588.31,288.00 1588.31,288.00
             1588.31,288.00 1588.31,346.00 1588.31,346.00
             1588.31,346.00 1580.42,346.00 1580.42,346.00
             1580.42,346.00 1580.42,318.00 1580.42,318.00
             1580.42,318.00 1551.75,318.00 1551.75,318.00
             1551.75,318.00 1551.75,346.00 1551.75,346.00
             1551.75,346.00 1543.86,346.00 1543.86,346.00
             1543.86,346.00 1543.86,288.00 1543.86,288.00 Z
           M 1623.34,295.61
           C 1623.34,295.61 1612.64,324.00 1612.64,324.00
             1612.64,324.00 1634.09,324.00 1634.09,324.00
             1634.09,324.00 1623.34,295.61 1623.34,295.61 Z
           M 1618.89,288.00
           C 1618.89,288.00 1627.84,288.00 1627.84,288.00
             1627.84,288.00 1650.06,346.00 1650.06,346.00
             1650.06,346.00 1641.86,346.00 1641.86,346.00
             1641.86,346.00 1636.55,330.00 1636.55,330.00
             1636.55,330.00 1610.27,330.00 1610.27,330.00
             1610.27,330.00 1604.95,346.00 1604.95,346.00
             1604.95,346.00 1596.62,346.00 1596.62,346.00
             1596.62,346.00 1618.89,288.00 1618.89,288.00 Z
           M 1658.86,288.00
           C 1658.86,288.00 1670.61,288.00 1670.61,288.00
             1670.61,288.00 1685.50,327.59 1685.50,327.59
             1685.50,327.59 1700.45,288.00 1700.45,288.00
             1700.45,288.00 1712.22,288.00 1712.22,288.00
             1712.22,288.00 1712.22,346.00 1712.22,346.00
             1712.22,346.00 1704.52,346.00 1704.52,346.00
             1704.52,346.00 1704.52,295.09 1704.52,295.09
             1704.52,295.09 1689.48,335.00 1689.48,335.00
             1689.48,335.00 1681.55,335.00 1681.55,335.00
             1681.55,335.00 1666.52,295.09 1666.52,295.09
             1666.52,295.09 1666.52,346.00 1666.52,346.00
             1666.52,346.00 1658.86,346.00 1658.86,346.00
             1658.86,346.00 1658.86,288.00 1658.86,288.00 Z" />
</svg>
